<svg width="22" height="49" viewBox="0 0 22 49" fill="none" xmlns="http://www.w3.org/2000/svg">
<path d="M6.28571 3.5L6.28571 2.625C6.28571 1.176 7.34171 -3.34453e-07 8.64286 -3.93727e-07L13.3571 -6.08487e-07C14.6583 -6.67761e-07 15.7143 1.176 15.7143 2.625L15.7143 3.5M22 43.75L22 8.75C22 7.35761 21.5033 6.02225 20.6192 5.03769C19.7351 4.05312 18.536 3.5 17.2857 3.5L4.71428 3.5C3.46398 3.5 2.26488 4.05312 1.38078 5.03769C0.496681 6.02225 -1.74657e-06 7.35761 -1.68817e-06 8.75L-2.20197e-07 43.75C-1.61797e-07 45.1424 0.496683 46.4777 1.38078 47.4623C2.26488 48.4469 3.46398 49 4.71429 49L17.2857 49C18.536 49 19.7351 48.4469 20.6192 47.4623C21.5033 46.4777 22 45.1424 22 43.75Z" fill="white"/>
</svg>
