<?xml version="1.0" encoding="UTF-8"?>
<svg id="Layer_1" data-name="Layer 1" xmlns="http://www.w3.org/2000/svg" viewBox="0 0 90 90">
  <defs>
    <style>
      .cls-1 {
        fill: #002d67;
      }

      .cls-1, .cls-2 {
        stroke-width: 0px;
      }

      .cls-2 {
        fill: #fff;
      }
    </style>
  </defs>
  <path class="cls-2" d="M43.69,84.08c-.78,0-1.55-.11-2.3-.34-6.75-2.04-6.75-9.32-6.75-22.54v-1.05c0-1.27,0-2.66-.06-3.55-.97-.08-2.58-.08-4.05-.08-9,0-14.43,0-17.16-4.83-.06-.1-.11-.2-.16-.3-2.67-5.08.73-9.62,5.89-16.49l10.59-14.12c7.42-9.89,11.14-14.85,16.61-14.85.77,0,1.55.11,2.29.34,6.75,2.04,6.75,9.32,6.75,22.54v1.06c0,1.27,0,2.66.06,3.55.97.08,2.58.08,4.05.08,9,0,14.43,0,17.16,4.83l.12.22c2.71,5.15-.7,9.69-5.85,16.56l-10.6,14.13c-7.42,9.89-11.14,14.85-16.61,14.85Z"/>
  <path class="cls-1" d="M46.31,10.92c.29,0,.57.04.85.13,3.19.96,3.19,6.56,3.19,17.76v1.06c0,4.04,0,6.06,1.31,7.32l.07.07c1.34,1.24,3.47,1.24,7.73,1.24,7.68,0,11.51,0,12.81,2.29.02.04.04.08.06.11,1.22,2.33-1,5.29-5.44,11.22l-10.59,14.12c-6.24,8.32-9.64,12.85-12.61,12.85-.29,0-.57-.04-.85-.13-3.19-.96-3.19-6.56-3.19-17.76v-1.05c0-4.04,0-6.06-1.31-7.32l-.07-.07c-1.34-1.24-3.47-1.24-7.74-1.24-7.68,0-11.51,0-12.81-2.29-.02-.04-.04-.08-.06-.11-1.22-2.33,1-5.29,5.44-11.22l10.59-14.12c6.24-8.32,9.64-12.85,12.61-12.85M46.31.92h0c-6.42,0-10.79,4.74-12.43,6.53-2.34,2.54-4.92,5.98-8.18,10.32l-10.59,14.12c-2.52,3.35-4.33,5.78-5.64,8.2-3.28,6.07-2.17,10.78-.65,13.67.06.12.14.26.22.4,2.2,3.89,6.02,6.24,11.34,6.97,2.57.35,5.43.38,9.28.38,0,5.92,0,10.22.49,13.75,1.21,8.88,6.01,12.11,9.81,13.26,1.22.37,2.48.55,3.74.55,6.42,0,10.79-4.74,12.43-6.53,2.34-2.54,4.92-5.98,8.18-10.32l10.59-14.12c2.52-3.35,4.33-5.78,5.64-8.2,3.28-6.07,2.17-10.78.65-13.67-.09-.16-.15-.29-.22-.41-2.19-3.88-6.01-6.23-11.34-6.97-2.57-.35-5.43-.38-9.28-.38,0-5.92,0-10.22-.49-13.75-1.21-8.88-6.01-12.11-9.81-13.26-1.22-.37-2.48-.55-3.74-.55h0Z"/>
</svg>