<svg width="32" height="39" viewBox="0 0 32 39" fill="none" xmlns="http://www.w3.org/2000/svg">
<path d="M3.59981 15.2582L9.46193 7.44312C13.2511 2.39149 15.1458 -0.134331 16.9135 0.399417C18.6811 0.933184 18.6811 4.03112 18.6811 10.2269V10.8111C18.6811 13.0458 18.6811 14.1632 19.4059 14.864L19.4442 14.9003C20.1845 15.5865 21.3647 15.5865 23.7251 15.5865C27.9729 15.5865 30.0969 15.5865 30.8146 16.8558C30.8265 16.8767 30.838 16.898 30.8493 16.9193C31.527 18.2084 30.2972 19.8478 27.8376 23.1266L21.9756 30.9416C18.1862 35.9931 16.2915 38.5191 14.5238 37.9852C12.7563 37.4514 12.7563 34.3535 12.7563 28.1576L12.7564 27.5738C12.7564 25.3389 12.7564 24.2216 12.0317 23.5206L11.9934 23.4844C11.2531 22.7984 10.0728 22.7984 7.71233 22.7984C3.46457 22.7984 1.34068 22.7984 0.622888 21.5289C0.610999 21.508 0.599436 21.4868 0.588218 21.4653C-0.0893771 20.1764 1.14035 18.537 3.59981 15.2582Z" fill="white"/>
</svg>
