<svg width="306" height="217" viewBox="0 0 306 217" fill="none" xmlns="http://www.w3.org/2000/svg">
<path d="M228.076 217L261.451 123.975L287.68 123.977L306 0L271.64 92.9197L246.408 92.9204L228.076 217Z" fill="#EAA001"/>
<path d="M219.109 131.21C229.634 131.21 238.166 122.657 238.166 112.107C238.166 101.557 229.634 93.0044 219.109 93.0044C208.584 93.0044 200.052 101.557 200.052 112.107C200.052 122.657 208.584 131.21 219.109 131.21Z" fill="#013372"/>
<path d="M72.9186 131.079C83.4436 131.079 91.9757 122.526 91.9757 111.976C91.9757 101.426 83.4436 92.8731 72.9186 92.8731C62.3937 92.8731 53.8616 101.426 53.8616 111.976C53.8616 122.526 62.3937 131.079 72.9186 131.079Z" fill="#013372"/>
<path d="M50.2746 103.566C48.8182 108.314 48.1541 111.283 49.3279 117.048C43.1366 117.731 37.7375 118.446 31.7998 119.575C31.4275 119.701 31.2453 120.145 31.3404 120.462L32.2591 122.702L32.2871 123.505C32.1722 123.689 31.7759 123.936 31.6317 123.96H5.57763C4.87799 123.992 4.18275 123.899 3.74014 123.745C-6.02787 119.168 1.29984 113.151 50.2746 103.566Z" fill="#013372"/>
<path d="M268.049 87.7223L274.66 69.8158L238.438 69.8172L230.625 90.5641C235.661 93.5642 236.845 94.8807 240.169 99.7549C240.764 96.1342 240.962 93.6095 241.762 90.6083L242.731 89.2466L244.047 88.2976L246.322 87.7417L268.049 87.7223Z" fill="#013372"/>
<path d="M104.702 123.966L197.917 123.968C188.422 106.433 202.993 82.9242 225.764 88.7491L228.962 80.294L228.023 80.1677L182.641 69.9997C181.842 69.8721 181.11 69.8231 180.226 69.819L149.072 69.8194C148.6 69.8738 148.442 70.1361 148.681 70.623L150.616 73.2959L151.175 73.6286L165.711 75.1812L167.235 75.6187L170.659 79.5892C170.811 80.0132 171.19 80.5129 171.215 80.7937V81.5124C171.127 81.8138 171.056 82.0056 170.952 82.1301L170.591 82.5091C170.35 82.5775 170.156 82.7412 169.969 82.891L153.55 84.525C153.159 84.6991 152.818 84.9012 152.502 85.1146C152.272 85.3628 152.075 85.6391 151.962 85.9097L149.605 91C148.722 92.0435 147.334 92.7672 146.242 92.7486C129.626 92.4644 113.189 94.2712 92.123 97.0098C96.1338 101.936 97.3717 107.879 97.358 112.837L107.721 112.27C108.223 112.351 108.376 112.562 108.584 112.798C108.739 113.431 108.768 113.68 108.681 114.234L104.702 123.966Z" fill="#013372"/>
</svg>
