<svg width="49" height="49" viewBox="0 0 49 49" fill="none" xmlns="http://www.w3.org/2000/svg">
<g clip-path="url(#clip0_379_286)">
<path d="M24.4999 6.4126C14.5266 6.4126 6.4126 14.5266 6.4126 24.5001C6.4126 34.4734 14.5266 42.5872 24.4999 42.5872C34.4732 42.5872 42.5872 34.4734 42.5872 24.5001C42.5874 14.5268 34.4732 6.4126 24.4999 6.4126ZM24.4999 39.4518C16.2555 39.4518 9.54814 32.7447 9.54814 24.5003C9.54814 16.2557 16.2555 9.54835 24.4999 9.54835C32.7443 9.54835 39.4516 16.2557 39.4516 24.5003C39.4518 32.7445 32.7445 39.4518 24.4999 39.4518Z" fill="white"/>
<path d="M9.38479 9.38507C9.99706 8.7728 9.99706 7.78009 9.38479 7.16782C8.77231 6.55555 7.77981 6.55555 7.16754 7.16782C-2.38918 16.7248 -2.38918 32.2754 7.16754 41.8325C7.47378 42.1388 7.87492 42.2918 8.27627 42.2918C8.67741 42.2918 9.07876 42.1388 9.38479 41.8325C9.99727 41.2203 9.99727 40.2278 9.385 39.6155C1.05051 31.2808 1.05051 17.7196 9.38479 9.38507Z" fill="white"/>
<path d="M41.832 7.16782C41.2195 6.55555 40.227 6.55555 39.6147 7.16782C39.0025 7.78009 39.0025 8.7728 39.6147 9.38507C47.9494 17.7196 47.9494 31.2808 39.6147 39.6155C39.0025 40.2278 39.0025 41.2205 39.6147 41.8325C39.921 42.1386 40.3223 42.2918 40.7234 42.2918C41.1246 42.2918 41.5259 42.1388 41.8322 41.8325C51.3891 32.2752 51.3891 16.7248 41.832 7.16782Z" fill="white"/>
<path d="M24.4999 29.3084C25.3659 29.3084 26.0677 28.6064 26.0677 27.7406V14.3874C26.0677 13.5215 25.3659 12.8196 24.4999 12.8196C23.6339 12.8196 22.9321 13.5215 22.9321 14.3874V27.7406C22.9321 28.6064 23.6341 29.3084 24.4999 29.3084Z" fill="white"/>
<path d="M24.4999 34.6128C25.5769 34.6128 26.45 33.7398 26.45 32.6627C26.45 31.5857 25.5769 30.7126 24.4999 30.7126C23.4229 30.7126 22.5498 31.5857 22.5498 32.6627C22.5498 33.7398 23.4229 34.6128 24.4999 34.6128Z" fill="white"/>
</g>
<defs>
<clipPath id="clip0_379_286">
<rect width="49" height="49" fill="white"/>
</clipPath>
</defs>
</svg>
