<?xml version="1.0" encoding="utf-8"?>
<!-- Generator: Adobe Illustrator 28.2.0, SVG Export Plug-In . SVG Version: 6.00 Build 0)  -->
<svg version="1.1" id="Layer_1" xmlns="http://www.w3.org/2000/svg" xmlns:xlink="http://www.w3.org/1999/xlink" x="0px" y="0px"
	 viewBox="0 0 50 50" style="enable-background:new 0 0 50 50;" xml:space="preserve">
<style type="text/css">
	.st0{fill:none;}
	.st1{fill:#FFFFFF;}
</style>
<rect class="st0" width="50" height="50"/>
<path class="st1" d="M25,6.5C14.8,6.5,6.5,14.8,6.5,25c0,10.2,8.3,18.5,18.5,18.5S43.5,35.2,43.5,25C43.5,14.8,35.2,6.5,25,6.5z
	 M25,40.3c-8.4,0-15.3-6.8-15.3-15.3c0-8.4,6.8-15.3,15.3-15.3S40.3,16.6,40.3,25C40.3,33.4,33.4,40.3,25,40.3z"/>
<path class="st1" d="M9.6,9.6c0.6-0.6,0.6-1.6,0-2.3C9,6.7,7.9,6.7,7.3,7.3c-9.8,9.8-9.8,25.6,0,35.4C7.6,43,8,43.2,8.4,43.2
	c0.4,0,0.8-0.2,1.1-0.5c0.6-0.6,0.6-1.6,0-2.3C1.1,31.9,1.1,18.1,9.6,9.6z"/>
<path class="st1" d="M42.7,7.3c-0.6-0.6-1.6-0.6-2.3,0c-0.6,0.6-0.6,1.6,0,2.3c8.5,8.5,8.5,22.3,0,30.8c-0.6,0.6-0.6,1.6,0,2.3
	c0.3,0.3,0.7,0.5,1.1,0.5c0.4,0,0.8-0.2,1.1-0.5C52.4,32.9,52.4,17.1,42.7,7.3z"/>
<path class="st1" d="M25,29.9c0.9,0,1.6-0.7,1.6-1.6V14.7c0-0.9-0.7-1.6-1.6-1.6c-0.9,0-1.6,0.7-1.6,1.6v13.6
	C23.4,29.2,24.1,29.9,25,29.9z"/>
<path class="st1" d="M25,35.3c1.1,0,2-0.9,2-2c0-1.1-0.9-2-2-2c-1.1,0-2,0.9-2,2C23,34.4,23.9,35.3,25,35.3z"/>
</svg>
