<svg width="68" height="33" viewBox="0 0 68 33" fill="none" xmlns="http://www.w3.org/2000/svg">
<path d="M40.2443 27.693L40.244 27.6928L23.7687 8.96897C22.2971 7.50938 20.4306 6.51941 18.4031 6.12272C16.3703 5.72498 14.266 5.9413 12.3549 6.7446C10.4437 7.54791 8.81082 8.90248 7.66205 10.6383C6.51327 12.3742 5.90011 14.4137 5.90011 16.5C5.90011 18.5863 6.51327 20.6258 7.66205 22.3617C8.81081 24.0975 10.4437 25.4521 12.3549 26.2554C14.266 27.0587 16.3703 27.275 18.4031 26.8773C20.4306 26.4806 22.2971 25.4906 23.7687 24.031L26.1 21.3816C26.3347 21.1142 26.6197 20.8958 26.9388 20.739C27.2578 20.5822 27.6046 20.4902 27.9592 20.4684C28.3138 20.4465 28.6692 20.4953 29.005 20.6117C29.3408 20.7282 29.6503 20.91 29.9158 21.1467C30.1813 21.3835 30.3977 21.6704 30.5527 21.9909C30.7077 22.3115 30.7984 22.6596 30.8196 23.0152C30.8408 23.3708 30.7921 23.7272 30.6764 24.0641C30.5607 24.4007 30.3801 24.7113 30.1449 24.978L40.2443 27.693ZM40.2443 27.693C40.2803 27.7339 40.3176 27.7738 40.356 27.8125L40.7107 27.4601L40.356 27.8125C42.5794 30.0504 45.4126 31.5748 48.4976 32.1924C51.5825 32.8101 54.7801 32.4931 57.6858 31.2816C60.5915 30.0703 63.0745 28.019 64.8213 25.3879C66.5679 22.7568 67.5 19.6638 67.5 16.5C67.5 13.3362 66.5678 10.2433 64.8211 7.61221C63.0744 4.9811 60.5914 2.92992 57.6857 1.71854C54.78 0.507137 51.5825 0.190124 48.4976 0.807728C45.4127 1.42533 42.5794 2.94969 40.356 5.18753L40.356 5.18758C40.3175 5.2263 40.2803 5.26611 40.2442 5.307L40.244 5.30722L37.8553 8.02197L37.8548 8.02253C37.3817 8.56174 37.1411 9.2672 37.1848 9.98396C37.2285 10.7008 37.5531 11.3715 38.0884 11.8487C38.6238 12.326 39.3261 12.5704 40.0413 12.5273C40.7564 12.4842 41.4245 12.1573 41.8993 11.6194L41.8998 11.6188L44.2315 8.96895C45.7031 7.50937 47.5696 6.51941 49.597 6.12272C51.6298 5.72498 53.7342 5.9413 55.6453 6.7446C57.5565 7.54791 59.1894 8.90248 60.3381 10.6383C61.4869 12.3742 62.1001 14.4137 62.1001 16.5C62.1001 18.5863 61.4869 20.6258 60.3381 22.3617C59.1894 24.0975 57.5565 25.4521 55.6453 26.2554C53.7342 27.0587 51.6298 27.275 49.597 26.8773C47.5696 26.4806 45.7031 25.4906 44.2315 24.031L27.7561 5.30722L27.7559 5.30699C27.7199 5.26608 27.6826 5.22626 27.6442 5.18755L27.6442 5.18754C25.4207 2.94963 22.5875 1.42522 19.5026 0.807583C16.4177 0.189945 13.2201 0.506943 10.3143 1.71835C7.40859 2.92974 4.92555 4.98096 3.17882 7.6121C1.43211 10.2432 0.5 13.3362 0.5 16.5C0.5 19.6638 1.43211 22.7568 3.17882 25.3879C4.92555 28.019 7.40859 30.0703 10.3143 31.2817C13.2201 32.4931 16.4177 32.8101 19.5026 32.1924C22.5875 31.5748 25.4207 30.0504 27.6442 27.8125L27.6442 27.8124C27.6827 27.7737 27.7199 27.7339 27.7559 27.693L27.7561 27.6928L30.1445 24.9785L40.2443 27.693Z" fill="white" stroke="white"/>
</svg>
