<?xml version="1.0" encoding="utf-8"?>
<!-- Generator: Adobe Illustrator 28.2.0, SVG Export Plug-In . SVG Version: 6.00 Build 0)  -->
<svg version="1.1" id="Layer_1" xmlns="http://www.w3.org/2000/svg" xmlns:xlink="http://www.w3.org/1999/xlink" x="0px" y="0px"
	 viewBox="0 0 50 50" style="enable-background:new 0 0 50 50;" xml:space="preserve">
<style type="text/css">
	.st0{fill:#FFFFFF;}
</style>
<path class="st0" d="M50,25c0,2.3-0.7,4.6-2,6.5c-1.3,1.9-3.1,3.4-5.2,4.3c-2.1,0.9-4.5,1.1-6.8,0.7c-2.3-0.4-4.3-1.6-6-3.2
	c0,0,0,0-0.1-0.1L17.5,19.1c-1.2-1.2-2.7-1.9-4.3-2.3c-1.6-0.3-3.3-0.1-4.8,0.5c-1.5,0.6-2.8,1.7-3.7,3.1s-1.4,3-1.4,4.7
	s0.5,3.2,1.4,4.6c0.9,1.4,2.2,2.4,3.7,3.1s3.2,0.8,4.8,0.5c1.6-0.3,3.1-1.1,4.3-2.3l1.8-2c0.1-0.2,0.3-0.3,0.5-0.4
	c0.2-0.1,0.4-0.1,0.6-0.2c0.2,0,0.4,0,0.7,0.1c0.2,0.1,0.4,0.2,0.5,0.3c0.1,0.1,0.3,0.3,0.4,0.5c0.1,0.2,0.1,0.4,0.2,0.6
	c0,0.2,0,0.4-0.1,0.7c-0.1,0.2-0.2,0.4-0.3,0.5l-1.8,2c0,0,0,0-0.1,0.1c-1.6,1.6-3.7,2.7-6,3.2c-2.3,0.5-4.6,0.3-6.8-0.6
	c-2.1-0.9-3.9-2.4-5.2-4.3c-1.3-1.9-2-4.2-2-6.5s0.7-4.6,2-6.5c1.3-1.9,3.1-3.4,5.2-4.3c2.2-0.9,4.5-1.1,6.8-0.7
	c2.3,0.4,4.3,1.6,6,3.2c0,0,0,0,0.1,0.1L32.5,31c1.2,1.2,2.7,1.9,4.3,2.3c1.6,0.3,3.3,0.1,4.8-0.5c1.5-0.6,2.8-1.7,3.7-3.1
	c0.9-1.4,1.4-3,1.4-4.6s-0.5-3.2-1.4-4.6c-0.9-1.4-2.2-2.4-3.7-3.1c-1.5-0.6-3.2-0.8-4.8-0.5c-1.6,0.3-3.1,1.1-4.3,2.3l-1.8,2
	c-0.3,0.3-0.7,0.5-1.1,0.5c-0.4,0-0.9-0.1-1.2-0.4c-0.3-0.3-0.5-0.7-0.5-1.1c0-0.4,0.1-0.9,0.4-1.2l1.8-2c0,0,0,0,0.1-0.1
	c1.6-1.6,3.7-2.7,6-3.2c2.3-0.4,4.6-0.2,6.8,0.7c2.1,0.9,3.9,2.4,5.2,4.3C49.3,20.5,50,22.7,50,25z"/>
<path class="st0" d="M50,25c0,2.3-0.7,4.6-2,6.5c-1.3,1.9-3.1,3.4-5.2,4.3c-2.1,0.9-4.5,1.1-6.8,0.7c-2.3-0.4-4.3-1.6-6-3.2
	c0,0,0,0-0.1-0.1L17.5,19.1c-1.2-1.2-2.7-1.9-4.3-2.3c-1.6-0.3-3.3-0.1-4.8,0.5c-1.5,0.6-2.8,1.7-3.7,3.1s-1.4,3-1.4,4.7
	s0.5,3.2,1.4,4.6c0.9,1.4,2.2,2.4,3.7,3.1s3.2,0.8,4.8,0.5c1.6-0.3,3.1-1.1,4.3-2.3l1.8-2c0.1-0.2,0.3-0.3,0.5-0.4
	c0.2-0.1,0.4-0.1,0.6-0.2c0.2,0,0.4,0,0.7,0.1c0.2,0.1,0.4,0.2,0.5,0.3c0.1,0.1,0.3,0.3,0.4,0.5c0.1,0.2,0.1,0.4,0.2,0.6
	c0,0.2,0,0.4-0.1,0.7c-0.1,0.2-0.2,0.4-0.3,0.5l-1.8,2c0,0,0,0-0.1,0.1c-1.6,1.6-3.7,2.7-6,3.2c-2.3,0.5-4.6,0.3-6.8-0.6
	c-2.1-0.9-3.9-2.4-5.2-4.3c-1.3-1.9-2-4.2-2-6.5s0.7-4.6,2-6.5c1.3-1.9,3.1-3.4,5.2-4.3c2.2-0.9,4.5-1.1,6.8-0.7
	c2.3,0.4,4.3,1.6,6,3.2c0,0,0,0,0.1,0.1L32.5,31c1.2,1.2,2.7,1.9,4.3,2.3c1.6,0.3,3.3,0.1,4.8-0.5c1.5-0.6,2.8-1.7,3.7-3.1
	c0.9-1.4,1.4-3,1.4-4.6s-0.5-3.2-1.4-4.6c-0.9-1.4-2.2-2.4-3.7-3.1c-1.5-0.6-3.2-0.8-4.8-0.5c-1.6,0.3-3.1,1.1-4.3,2.3l-1.8,2
	c-0.3,0.3-0.7,0.5-1.1,0.5c-0.4,0-0.9-0.1-1.2-0.4c-0.3-0.3-0.5-0.7-0.5-1.1c0-0.4,0.1-0.9,0.4-1.2l1.8-2c0,0,0,0,0.1-0.1
	c1.6-1.6,3.7-2.7,6-3.2c2.3-0.4,4.6-0.2,6.8,0.7c2.1,0.9,3.9,2.4,5.2,4.3C49.3,20.5,50,22.7,50,25z"/>
</svg>
