<?xml version="1.0" encoding="utf-8"?>
<!-- Generator: Adobe Illustrator 27.3.1, SVG Export Plug-In . SVG Version: 6.00 Build 0)  -->
<svg version="1.1" id="Layer_1" xmlns="http://www.w3.org/2000/svg" xmlns:xlink="http://www.w3.org/1999/xlink" x="0px" y="0px"
	 viewBox="0 0 137 64" style="enable-background:new 0 0 137 64;" xml:space="preserve">
<style type="text/css">
	.st0{fill:#FFFFFF;}
</style>
<path class="st0" d="M137,32c0,6.3-1.9,12.5-5.4,17.8c-3.5,5.3-8.5,9.4-14.3,11.8c-5.8,2.4-12.3,3.1-18.5,1.8
	c-6.2-1.2-11.9-4.3-16.4-8.8c-0.1-0.1-0.1-0.1-0.2-0.2L48,15.7c-3.2-3.2-7.3-5.3-11.7-6.2c-4.4-0.9-9-0.4-13.2,1.3
	c-4.2,1.7-7.7,4.7-10.2,8.4S9.1,27.5,9.1,32s1.3,8.9,3.8,12.7s6,6.7,10.2,8.4s8.7,2.2,13.2,1.3c4.4-0.9,8.5-3,11.7-6.2l4.9-5.5
	c0.4-0.5,0.9-0.8,1.4-1.1c0.5-0.3,1.1-0.4,1.7-0.5c0.6,0,1.2,0,1.8,0.2c0.6,0.2,1.1,0.5,1.5,0.9c0.4,0.4,0.8,0.9,1.1,1.4
	c0.3,0.5,0.4,1.1,0.5,1.7c0,0.6,0,1.2-0.2,1.8c-0.2,0.6-0.5,1.1-0.9,1.5l-5,5.6c-0.1,0.1-0.1,0.1-0.2,0.2
	c-4.5,4.5-10.2,7.5-16.4,8.8C32,64.6,25.6,64,19.7,61.6C13.9,59.1,8.9,55,5.4,49.8C1.9,44.5,0,38.3,0,32s1.9-12.5,5.4-17.8
	C8.9,9,13.9,4.9,19.7,2.4C25.6,0,32-0.6,38.2,0.6c6.2,1.2,11.9,4.3,16.4,8.8c0.1,0.1,0.1,0.1,0.2,0.2L89,48.3
	c3.2,3.2,7.3,5.3,11.7,6.2c4.4,0.9,9,0.4,13.2-1.3c4.2-1.7,7.7-4.7,10.2-8.4c2.5-3.8,3.8-8.2,3.8-12.7s-1.3-8.9-3.8-12.7
	c-2.5-3.8-6-6.7-10.2-8.4c-4.2-1.7-8.7-2.2-13.2-1.3c-4.4,0.9-8.5,3-11.7,6.2l-4.9,5.5c-0.8,0.9-1.9,1.5-3.1,1.5
	c-1.2,0.1-2.4-0.3-3.3-1.1c-0.9-0.8-1.5-1.9-1.5-3.1c-0.1-1.2,0.3-2.4,1.1-3.3l5-5.6c0.1-0.1,0.1-0.1,0.2-0.2
	c4.5-4.5,10.2-7.5,16.4-8.8c6.2-1.2,12.6-0.6,18.5,1.8c5.8,2.4,10.8,6.5,14.3,11.8C135.1,19.5,137,25.7,137,32z"/>
<path class="st0" d="M137,32c0,6.3-1.9,12.5-5.4,17.8c-3.5,5.3-8.5,9.4-14.3,11.8c-5.8,2.4-12.3,3.1-18.5,1.8
	c-6.2-1.2-11.9-4.3-16.4-8.8c-0.1-0.1-0.1-0.1-0.2-0.2L48,15.7c-3.2-3.2-7.3-5.3-11.7-6.2c-4.4-0.9-9-0.4-13.2,1.3
	c-4.2,1.7-7.7,4.7-10.2,8.4S9.1,27.5,9.1,32s1.3,8.9,3.8,12.7s6,6.7,10.2,8.4s8.7,2.2,13.2,1.3c4.4-0.9,8.5-3,11.7-6.2l4.9-5.5
	c0.4-0.5,0.9-0.8,1.4-1.1c0.5-0.3,1.1-0.4,1.7-0.5c0.6,0,1.2,0,1.8,0.2c0.6,0.2,1.1,0.5,1.5,0.9c0.4,0.4,0.8,0.9,1.1,1.4
	c0.3,0.5,0.4,1.1,0.5,1.7c0,0.6,0,1.2-0.2,1.8c-0.2,0.6-0.5,1.1-0.9,1.5l-5,5.6c-0.1,0.1-0.1,0.1-0.2,0.2
	c-4.5,4.5-10.2,7.5-16.4,8.8C32,64.6,25.6,64,19.7,61.6C13.9,59.1,8.9,55,5.4,49.8C1.9,44.5,0,38.3,0,32s1.9-12.5,5.4-17.8
	C8.9,9,13.9,4.9,19.7,2.4C25.6,0,32-0.6,38.2,0.6c6.2,1.2,11.9,4.3,16.4,8.8c0.1,0.1,0.1,0.1,0.2,0.2L89,48.3
	c3.2,3.2,7.3,5.3,11.7,6.2c4.4,0.9,9,0.4,13.2-1.3c4.2-1.7,7.7-4.7,10.2-8.4c2.5-3.8,3.8-8.2,3.8-12.7s-1.3-8.9-3.8-12.7
	c-2.5-3.8-6-6.7-10.2-8.4c-4.2-1.7-8.7-2.2-13.2-1.3c-4.4,0.9-8.5,3-11.7,6.2l-4.9,5.5c-0.8,0.9-1.9,1.5-3.1,1.5
	c-1.2,0.1-2.4-0.3-3.3-1.1c-0.9-0.8-1.5-1.9-1.5-3.1c-0.1-1.2,0.3-2.4,1.1-3.3l5-5.6c0.1-0.1,0.1-0.1,0.2-0.2
	c4.5-4.5,10.2-7.5,16.4-8.8c6.2-1.2,12.6-0.6,18.5,1.8c5.8,2.4,10.8,6.5,14.3,11.8C135.1,19.5,137,25.7,137,32z"/>
</svg>
