<?xml version="1.0" encoding="utf-8"?>
<svg viewBox="0 0 1080 1080" xmlns="http://www.w3.org/2000/svg">
    <g transform="matrix(0.9999999999999999, 0, 0, 1, 539.9999984651778, 539.999998465178)" id="4ede143e-b6c6-4a97-a4e2-b3678384e6ad"/>
    <g transform="matrix(0.9999999999999999, 0, 0, 1, 539.9999984651778, 539.999998465178)" id="d5c83dec-c99c-4ae1-8662-2db8c9850518"/>
    <g transform="matrix(11.374407768249512, 0, 0, 11.374407768249513, 539.9999984651778, 539.999998465178)" style="">
        <path style="stroke: none; stroke-width: 1; stroke-dasharray: none; stroke-linecap: butt; stroke-dashoffset: 0; stroke-linejoin: miter; stroke-miterlimit: 4; fill-rule: nonzero; opacity: 1; fill: rgb(255, 255, 255);" vector-effect="non-scaling-stroke" transform=" translate(-50, -50)" d="M 95.6 45.4 L 54.599999999999994 4.399999999999999 C 52.099999999999994 1.8999999999999986 47.89999999999999 1.8999999999999986 45.39999999999999 4.399999999999999 L 4.3999999999999915 45.4 C 1.8999999999999915 47.9 1.8999999999999915 52.1 4.3999999999999915 54.599999999999994 L 45.39999999999999 95.6 C 47.89999999999999 98.1 52.099999999999994 98.1 54.599999999999994 95.6 L 95.6 54.599999999999994 C 98.1 52.1 98.1 47.9 95.6 45.4 z M 70.4 47.2 L 59.6 57.9 C 58.9 58.6 58 58.9 57.1 58.9 C 56.2 58.9 55.300000000000004 58.6 54.6 57.9 C 53.2 56.5 53.2 54.199999999999996 54.6 52.8 L 59.300000000000004 48.099999999999994 L 45.4 48.099999999999994 C 43.1 48.099999999999994 41.199999999999996 49.99999999999999 41.199999999999996 52.3 L 41.199999999999996 64.1 C 41.199999999999996 66.1 39.599999999999994 67.69999999999999 37.599999999999994 67.69999999999999 C 35.599999999999994 67.69999999999999 34 66.2 34 64.2 L 34 52.4 C 34 46.199999999999996 39.1 41.099999999999994 45.3 41.099999999999994 L 59.099999999999994 41.099999999999994 L 54.39999999999999 36.39999999999999 C 52.99999999999999 34.99999999999999 52.99999999999999 32.69999999999999 54.39999999999999 31.29999999999999 C 55.79999999999999 29.89999999999999 58.099999999999994 29.89999999999999 59.49999999999999 31.29999999999999 L 70.3 42.099999999999994 C 71.8 43.5 71.8 45.8 70.4 47.2 z" stroke-linecap="round"/>
    </g>
</svg>