<?xml version="1.0" encoding="utf-8"?>
<!-- Generator: Adobe Illustrator 28.2.0, SVG Export Plug-In . SVG Version: 6.00 Build 0)  -->
<svg version="1.1" id="Layer_1" xmlns="http://www.w3.org/2000/svg" xmlns:xlink="http://www.w3.org/1999/xlink" x="0px" y="0px"
	 viewBox="0 0 50 50" style="enable-background:new 0 0 50 50;" xml:space="preserve">
<style type="text/css">
	.st0{fill:#FFFFFF;}
</style>
<g id="_x34_ede143e-b6c6-4a97-a4e2-b3678384e6ad" transform="matrix(0.9999999999999999, 0, 0, 1, 539.9999984651778, 539.999998465178)">
</g>
<g id="d5c83dec-c99c-4ae1-8662-2db8c9850518" transform="matrix(0.9999999999999999, 0, 0, 1, 539.9999984651778, 539.999998465178)">
</g>
<g transform="matrix(11.374407768249512, 0, 0, 11.374407768249513, 539.9999984651778, 539.999998465178)">
	<path vector-effect="non-scaling-stroke" class="st0" d="M-43.2-45.5l-1.9-1.9c-0.1-0.1-0.3-0.1-0.4,0l-1.9,1.9
		c-0.1,0.1-0.1,0.3,0,0.4l1.9,1.9c0.1,0.1,0.3,0.1,0.4,0l1.9-1.9C-43.1-45.2-43.1-45.4-43.2-45.5z M-44.3-45.4l-0.5,0.5
		c0,0-0.1,0-0.1,0c0,0-0.1,0-0.1,0c-0.1-0.1-0.1-0.2,0-0.2l0.2-0.2h-0.6c-0.1,0-0.2,0.1-0.2,0.2v0.5c0,0.1-0.1,0.2-0.2,0.2
		c-0.1,0-0.2-0.1-0.2-0.2v-0.5c0-0.3,0.2-0.5,0.5-0.5h0.6l-0.2-0.2c-0.1-0.1-0.1-0.2,0-0.2s0.2-0.1,0.2,0l0.5,0.5
		C-44.3-45.6-44.3-45.5-44.3-45.4z"/>
</g>
</svg>
