<?xml version="1.0" encoding="utf-8"?>
<!-- Generator: Adobe Illustrator 28.2.0, SVG Export Plug-In . SVG Version: 6.00 Build 0)  -->
<svg version="1.1" id="Layer_1" xmlns="http://www.w3.org/2000/svg" xmlns:xlink="http://www.w3.org/1999/xlink" x="0px" y="0px"
	 viewBox="0 0 50 50" style="enable-background:new 0 0 50 50;" xml:space="preserve">
<style type="text/css">
	.st0{fill:none;stroke:#FFFFFF;stroke-width:3.7989;stroke-linecap:round;stroke-linejoin:round;stroke-miterlimit:7.3333;}
</style>
<g>
	<path class="st0" d="M17.4,16.1v-2.5C17.4,9.4,20.8,6,25,6s7.6,3.4,7.6,7.6v2.5"/>
	<path class="st0" d="M14.9,16.1h20.3c1.5,2.3,2.4,4.9,2.5,7.6v7.6C37.7,38.3,32,44,25,44s-12.7-5.7-12.7-12.7v-7.6
		C12.5,21,13.4,18.4,14.9,16.1"/>
	<path class="st0" d="M2.2,26.3h10.1"/>
	<path class="st0" d="M37.7,26.3h10.1"/>
	<path class="st0" d="M25,44V28.8"/>
	<path class="st0" d="M4.7,41.5l8.5-5.1"/>
	<path class="st0" d="M45.3,41.5l-8.5-5.1"/>
	<path class="st0" d="M4.7,11.1l9.5,6.1"/>
	<path class="st0" d="M45.3,11.1l-9.5,6.1"/>
</g>
</svg>
